<svg xmlns="http://www.w3.org/2000/svg" viewBox="0 0 240 230" width="240" height="230">
  <!-- N monogram -->
  <rect x="30" y="40" width="36" height="166" fill="#14231C"/>
  <rect x="176" y="40" width="36" height="166" fill="#14231C"/>
  <polygon points="66,40 102,40 212,206 176,206" fill="#14231C"/>

  <!-- Green motion swoosh -->
  <path d="M40,205 C95,150 150,95 195,60 L207,72 C160,108 108,160 58,214 Z" fill="#1B7A3D"/>

  <!-- Soccer ball -->
  <circle cx="206" cy="48" r="22" fill="#FFFFFF" stroke="#14231C" stroke-width="2"/>
  <polygon points="206,36.3 210.4,39.6 208.9,44.8 203.1,44.8 201.6,39.6" fill="#14231C"/>
  <g stroke="#14231C" stroke-width="1.3" fill="none">
    <path d="M206,36.3 L206,27.5"/>
    <path d="M194.3,43.6 L186.2,39.2"/>
    <path d="M198.7,50.9 L192.8,58.3"/>
    <path d="M213.3,50.9 L219.2,58.3"/>
    <path d="M217.7,43.6 L225.8,39.2"/>
  </g>
</svg>
